<svg width="317" height="318" viewBox="0 0 317 318" fill="none" xmlns="http://www.w3.org/2000/svg">
<g clip-path="url(#clip0_4_21)">
<path d="M256.057 78.7185L181.443 36.9393C174.355 33.0302 166.486 30.9896 158.5 30.9896C150.514 30.9896 142.645 33.0302 135.557 36.9393L60.9432 78.7185C54.1667 82.2894 48.4434 87.7685 44.3976 94.558C40.3518 101.348 38.1388 109.187 38 117.221V200.779C38.1388 208.813 40.3518 216.653 44.3976 223.442C48.4434 230.232 54.1667 235.711 60.9432 239.282L135.557 281.061C142.645 284.97 150.514 287.011 158.5 287.011C166.486 287.011 174.355 284.97 181.443 281.061L256.057 239.282C262.833 235.711 268.557 230.232 272.602 223.442C276.648 216.653 278.861 208.813 279 200.779V117.221C278.861 109.187 276.648 101.348 272.602 94.558C268.557 87.7685 262.833 82.2894 256.057 78.7185ZM241.597 227.813H75.4996C58.7742 227.813 48.2666 210.2 56.6534 196.171L139.654 56.6001C141.759 53.358 144.574 50.7076 147.857 48.8767C151.14 47.0458 154.792 46.0893 158.5 46.0893C162.208 46.0893 165.86 47.0458 169.143 48.8767C172.426 50.7076 175.241 53.358 177.346 56.6001L260.347 196.171C268.733 210.2 258.226 227.813 241.5 227.813H241.597Z" fill="#191919"/>
</g>
<defs>
<clipPath id="clip0_4_21">
<rect width="241" height="256" fill="white" transform="translate(38 31)"/>
</clipPath>
</defs>
</svg>
